<svg xmlns="http://www.w3.org/2000/svg" viewBox="0 0 64 64" width="64" height="64">
  <defs>
    <linearGradient id="bgGradient" x1="0%" y1="0%" x2="100%" y2="100%">
      <stop offset="0%" style="stop-color:#8B5CF6;stop-opacity:1" />
      <stop offset="100%" style="stop-color:#6366F1;stop-opacity:1" />
    </linearGradient>
    <linearGradient id="codeGradient" x1="0%" y1="0%" x2="100%" y2="100%">
      <stop offset="0%" style="stop-color:#60A5FA;stop-opacity:1" />
      <stop offset="100%" style="stop-color:#34D399;stop-opacity:1" />
    </linearGradient>
    <filter id="glow">
      <feGaussianBlur stdDeviation="2" result="coloredBlur"/>
      <feMerge> 
        <feMergeNode in="coloredBlur"/>
        <feMergeNode in="SourceGraphic"/>
      </feMerge>
    </filter>
  </defs>
  
  <!-- Background circle with gradient -->
  <circle cx="32" cy="32" r="28" fill="url(#bgGradient)" stroke="#F8FAFC" stroke-width="2" filter="url(#glow)"/>
  
  <!-- Clock ticks around the circle -->
  <g id="clockTicks" stroke="#34D399" stroke-linecap="round" opacity="0.95">
    <!-- long ticks at 12, 3, 6, 9 -->
    <g stroke-width="2.5">
      <line x1="32" y1="6" x2="32" y2="9"/>
      <line x1="32" y1="6" x2="32" y2="9" transform="rotate(90 32 32)"/>
      <line x1="32" y1="6" x2="32" y2="9" transform="rotate(180 32 32)"/>
      <line x1="32" y1="6" x2="32" y2="9" transform="rotate(270 32 32)"/>
    </g>
    <!-- short ticks for remaining hours -->
    <g stroke-width="2">
      <line x1="32" y1="6" x2="32" y2="7" transform="rotate(30 32 32)"/>
      <line x1="32" y1="6" x2="32" y2="7" transform="rotate(60 32 32)"/>
      <line x1="32" y1="6" x2="32" y2="7" transform="rotate(120 32 32)"/>
      <line x1="32" y1="6" x2="32" y2="7" transform="rotate(150 32 32)"/>
      <line x1="32" y1="6" x2="32" y2="7" transform="rotate(210 32 32)"/>
      <line x1="32" y1="6" x2="32" y2="7" transform="rotate(240 32 32)"/>
      <line x1="32" y1="6" x2="32" y2="7" transform="rotate(300 32 32)"/>
      <line x1="32" y1="6" x2="32" y2="7" transform="rotate(330 32 32)"/>
    </g>
  </g>
  
  <!-- Code brackets -->
  <path d="M18 20 L12 32 L18 44" stroke="url(#codeGradient)" stroke-width="3" fill="none" stroke-linecap="round" stroke-linejoin="round"/>
  <path d="M46 20 L52 32 L46 44" stroke="url(#codeGradient)" stroke-width="3" fill="none" stroke-linecap="round" stroke-linejoin="round"/>
  
  <!-- Center hourglass -->
  <g id="hourglass" stroke="#F8FAFC" stroke-width="2.5" fill="none" stroke-linecap="round" stroke-linejoin="round">
    <!-- top and bottom caps -->
    <line x1="24" y1="18" x2="40" y2="18"/>
    <line x1="24" y1="46" x2="40" y2="46"/>
    <!-- hourglass frame -->
    <path d="M24 18 Q32 26 32 32 Q32 38 24 46"/>
    <path d="M40 18 Q32 26 32 32 Q32 38 40 46"/>
    <!-- sand -->
    <polygon points="28,22 36,22 32,28" fill="url(#codeGradient)" stroke="none" opacity="0.9"/>
    <polygon points="28,42 36,42 32,36" fill="#F8FAFC" stroke="none" opacity="0.9"/>
  </g>
  
  <!-- Small decorative dots -->
  <circle cx="24" cy="28" r="1.5" fill="#F8FAFC" opacity="0.8"/>
  <circle cx="40" cy="36" r="1.5" fill="#F8FAFC" opacity="0.8"/>
  <circle cx="32" cy="24" r="1" fill="#60A5FA" opacity="0.6"/>
</svg>